<svg width="140" height="28" viewBox="0 0 140 28" fill="none" xmlns="http://www.w3.org/2000/svg">
<path d="M48.5884 15.1465L49.8605 16.4165C49.4789 16.8882 49.0427 17.3054 48.5157 17.6864C47.6252 18.3214 46.3349 18.9563 44.5903 18.9563C40.7739 18.9563 37.8662 16.0536 37.8662 12.4253C37.8662 8.79691 40.7739 5.89423 44.5903 5.89423C46.3349 5.89423 47.607 6.49291 48.4794 7.12787C48.97 7.4907 49.4062 7.88982 49.7697 8.34337L48.4975 9.6133C48.2431 9.2686 47.916 8.94205 47.5344 8.66992C46.8801 8.18009 45.8988 7.70841 44.5903 7.70841C41.9552 7.70841 39.8653 9.79471 39.8653 12.4253C39.8653 15.0558 41.9552 17.1421 44.5903 17.1421C45.8988 17.1421 46.8983 16.6523 47.5707 16.1443C47.9705 15.8541 48.3158 15.5275 48.5884 15.1465Z" fill="white"/>
<path d="M51.68 18.7749V10.0668H59.5853V18.7749H57.768V11.7903H53.4973V18.7749H51.68Z" fill="white"/>
<path d="M61.5879 14.4209C61.5879 11.881 63.587 9.88542 66.1312 9.88542C68.6755 9.88542 70.6745 11.881 70.6745 14.4209C70.6745 16.9607 68.6755 18.9563 66.1312 18.9563C63.587 18.9563 61.5879 16.9607 61.5879 14.4209ZM66.1312 17.2329C67.6759 17.2329 68.8572 16.0718 68.8572 14.4209C68.8572 12.77 67.6759 11.6089 66.1312 11.6089C64.5865 11.6089 63.4052 12.77 63.4052 14.4209C63.4052 16.0718 64.5865 17.2329 66.1312 17.2329Z" fill="white"/>
<path d="M74.5874 18.7749V11.7903H71.5888V10.0668H79.4033V11.7903H76.4047V18.7749H74.5874Z" fill="white"/>
<path d="M85.0399 18.7749V6.07564H86.8572L91.6731 12.2439L96.489 6.07564H98.3063V18.7749H96.3072V9.43188L91.6731 15.328L87.0389 9.43188V18.7749H85.0399Z" fill="white"/>
<path d="M108.023 16.0536L109.114 17.3236C108.877 17.632 108.568 17.9041 108.205 18.1399C107.569 18.5572 106.678 18.9563 105.388 18.9563C102.844 18.9563 100.845 16.9607 100.845 14.4209C100.845 11.881 102.844 9.88542 105.297 9.88542C107.769 9.88542 109.568 11.6815 109.568 14.1487C109.568 14.4209 109.532 14.6386 109.513 14.8018L109.477 15.0558H102.753C102.953 16.2351 104.007 17.2329 105.479 17.2329C106.26 17.2329 106.897 16.9426 107.333 16.6523C107.587 16.489 107.823 16.2895 108.023 16.0536ZM102.753 13.5138H107.66C107.387 12.3346 106.588 11.5182 105.297 11.5182C103.916 11.5182 103.117 12.3346 102.753 13.5138Z" fill="white"/>
<path d="M110.287 20.9519V17.0514H110.923C111.196 16.7612 111.432 16.3983 111.65 15.9811C112.014 15.2554 112.377 14.1487 112.377 12.6067V10.0668H118.738V17.0514H120.01V20.9519H118.192V18.7749H112.104V20.9519H110.287ZM112.831 17.0514H116.92V11.7903H114.194V12.6067C114.194 14.1487 113.849 15.2554 113.504 15.9811C113.304 16.3983 113.068 16.7612 112.831 17.0514Z" fill="white"/>
<path d="M121.64 18.7749V10.0668H123.457V15.8722L128 10.0668H129.636V18.7749H127.819V12.9695L123.275 18.7749H121.64Z" fill="white"/>
<path d="M137.27 18.7749V17.505C137.088 17.7771 136.852 18.0129 136.579 18.2306C136.089 18.5935 135.398 18.9563 134.453 18.9563C132.709 18.9563 131.545 17.7771 131.545 16.4165C131.545 14.9651 132.545 13.9673 134.09 13.6952L137.27 13.1509C137.27 12.2257 136.543 11.5182 135.453 11.5182C134.744 11.5182 134.217 11.8266 133.799 12.1169C133.563 12.2801 133.363 12.4797 133.181 12.6974L132 11.5182C132.236 11.2098 132.527 10.9376 132.872 10.7018C133.454 10.2845 134.29 9.88542 135.453 9.88542C137.634 9.88542 139.087 11.3368 139.087 13.2417V18.7749H137.27ZM137.27 14.8744V14.6023L134.726 15.0558C133.799 15.2191 133.363 15.6727 133.363 16.2351C133.363 16.87 133.89 17.4143 134.817 17.4143C136.18 17.4143 137.27 16.3258 137.27 14.8744Z" fill="white"/>
<path d="M7.32647 16.4153L0.22168 27.4715L10.9967 20.3541L13.5895 27.6442L16.1485 20.3541L23.1523 23.5673L19.8188 16.4153L26.9909 13.7895L19.8188 11.1291L26.9909 0.0384521L16.1485 7.39769L13.5558 0.0384521L10.9967 7.39769L4.06029 4.01175L7.32647 11.1291L0.22168 13.7895L7.32647 16.4153Z" fill="white"/>
</svg>
