<svg width="14" height="14" viewBox="0 0 14 14" fill="none" xmlns="http://www.w3.org/2000/svg">
<path d="M0 11.8088C0 11.0724 0.596964 10.4754 1.33336 10.4754H2.19118C2.92757 10.4754 3.52453 11.0724 3.52453 11.8088V12.6666C3.52453 13.403 2.92757 14 2.19118 14H1.33336C0.596965 14 0 13.403 0 12.6666V11.8088Z" fill="black"/>
<path d="M5.23742 11.8088C5.23742 11.0724 5.83439 10.4754 6.57078 10.4754H7.4286C8.16499 10.4754 8.76196 11.0724 8.76196 11.8088V12.6666C8.76196 13.403 8.16499 14 7.4286 14H6.57078C5.83439 14 5.23742 13.403 5.23742 12.6666V11.8088Z" fill="black"/>
<path d="M10.4755 11.8088C10.4755 11.0724 11.0724 10.4754 11.8088 10.4754H12.6666C13.403 10.4754 14 11.0724 14 11.8088V12.6666C14 13.403 13.403 14 12.6666 14H11.8088C11.0724 14 10.4755 13.403 10.4755 12.6666V11.8088Z" fill="black"/>
<path d="M0 6.57108C0 5.83468 0.596964 5.2377 1.33336 5.2377H2.19118C2.92757 5.2377 3.52453 5.83468 3.52453 6.57108V7.42892C3.52453 8.16532 2.92757 8.7623 2.19118 8.7623H1.33336C0.596965 8.7623 0 8.16532 0 7.42892V6.57108Z" fill="black"/>
<path d="M5.23742 6.57108C5.23742 5.83468 5.83439 5.2377 6.57078 5.2377H7.4286C8.16499 5.2377 8.76196 5.83468 8.76196 6.57108V7.42892C8.76196 8.16532 8.16499 8.7623 7.4286 8.7623H6.57078C5.83439 8.7623 5.23742 8.16532 5.23742 7.42892V6.57108Z" fill="black"/>
<path d="M10.4755 6.57108C10.4755 5.83468 11.0724 5.2377 11.8088 5.2377H12.6666C13.403 5.2377 14 5.83468 14 6.57108V7.42892C14 8.16532 13.403 8.7623 12.6666 8.7623H11.8088C11.0724 8.7623 10.4755 8.16532 10.4755 7.42892V6.57108Z" fill="black"/>
<path d="M0 1.33338C0 0.596975 0.596964 0 1.33336 0H2.19118C2.92757 0 3.52453 0.596974 3.52453 1.33338V2.19121C3.52453 2.92762 2.92757 3.52459 2.19118 3.52459H1.33336C0.596965 3.52459 0 2.92762 0 2.19121V1.33338Z" fill="black"/>
<path d="M5.23742 1.3334C5.23742 0.596995 5.83439 1.942e-05 6.57078 1.942e-05H7.4286C8.16499 1.942e-05 8.76196 0.596994 8.76196 1.3334V2.19123C8.76196 2.92764 8.16499 3.52461 7.4286 3.52461H6.57078C5.83439 3.52461 5.23742 2.92764 5.23742 2.19123V1.3334Z" fill="black"/>
<path d="M10.4755 1.3334C10.4755 0.596995 11.0724 1.942e-05 11.8088 1.942e-05H12.6666C13.403 1.942e-05 14 0.596994 14 1.3334V2.19123C14 2.92764 13.403 3.52461 12.6666 3.52461H11.8088C11.0724 3.52461 10.4755 2.92764 10.4755 2.19123V1.3334Z" fill="black"/>
</svg>
