<svg width="174" height="46" viewBox="0 0 174 46" fill="none" xmlns="http://www.w3.org/2000/svg">
<rect width="174" height="45.1731" rx="22.5865" fill="#A006FF"/>
<path d="M62.5884 25.1465L63.8605 26.4165C63.4789 26.8882 63.0427 27.3054 62.5157 27.6864C61.6252 28.3214 60.3349 28.9563 58.5903 28.9563C54.7739 28.9563 51.8662 26.0536 51.8662 22.4253C51.8662 18.7969 54.7739 15.8942 58.5903 15.8942C60.3349 15.8942 61.607 16.4929 62.4794 17.1279C62.97 17.4907 63.4062 17.8898 63.7697 18.3434L62.4975 19.6133C62.2431 19.2686 61.916 18.942 61.5344 18.6699C60.8801 18.1801 59.8988 17.7084 58.5903 17.7084C55.9552 17.7084 53.8653 19.7947 53.8653 22.4253C53.8653 25.0558 55.9552 27.1421 58.5903 27.1421C59.8988 27.1421 60.8983 26.6523 61.5707 26.1443C61.9705 25.8541 62.3158 25.5275 62.5884 25.1465Z" fill="white"/>
<path d="M65.68 28.7749V20.0668H73.5853V28.7749H71.768V21.7903H67.4973V28.7749H65.68Z" fill="white"/>
<path d="M75.5879 24.4209C75.5879 21.881 77.587 19.8854 80.1312 19.8854C82.6755 19.8854 84.6745 21.881 84.6745 24.4209C84.6745 26.9607 82.6755 28.9563 80.1312 28.9563C77.587 28.9563 75.5879 26.9607 75.5879 24.4209ZM80.1312 27.2329C81.6759 27.2329 82.8572 26.0718 82.8572 24.4209C82.8572 22.77 81.6759 21.6089 80.1312 21.6089C78.5865 21.6089 77.4052 22.77 77.4052 24.4209C77.4052 26.0718 78.5865 27.2329 80.1312 27.2329Z" fill="white"/>
<path d="M88.5874 28.7749V21.7903H85.5888V20.0668H93.4033V21.7903H90.4047V28.7749H88.5874Z" fill="white"/>
<path d="M99.0399 28.7749V16.0756H100.857L105.673 22.2439L110.489 16.0756H112.306V28.7749H110.307V19.4319L105.673 25.328L101.039 19.4319V28.7749H99.0399Z" fill="white"/>
<path d="M122.023 26.0536L123.114 27.3236C122.877 27.632 122.568 27.9041 122.205 28.1399C121.569 28.5572 120.678 28.9563 119.388 28.9563C116.844 28.9563 114.845 26.9607 114.845 24.4209C114.845 21.881 116.844 19.8854 119.297 19.8854C121.769 19.8854 123.568 21.6815 123.568 24.1487C123.568 24.4209 123.532 24.6386 123.513 24.8018L123.477 25.0558H116.753C116.953 26.2351 118.007 27.2329 119.479 27.2329C120.26 27.2329 120.897 26.9426 121.333 26.6523C121.587 26.489 121.823 26.2895 122.023 26.0536ZM116.753 23.5138H121.66C121.387 22.3346 120.588 21.5182 119.297 21.5182C117.916 21.5182 117.117 22.3346 116.753 23.5138Z" fill="white"/>
<path d="M124.287 30.9519V27.0514H124.923C125.196 26.7612 125.432 26.3983 125.65 25.9811C126.014 25.2554 126.377 24.1487 126.377 22.6067V20.0668H132.738V27.0514H134.01V30.9519H132.192V28.7749H126.104V30.9519H124.287ZM126.831 27.0514H130.92V21.7903H128.194V22.6067C128.194 24.1487 127.849 25.2554 127.504 25.9811C127.304 26.3983 127.068 26.7612 126.831 27.0514Z" fill="white"/>
<path d="M135.64 28.7749V20.0668H137.457V25.8722L142 20.0668H143.636V28.7749H141.819V22.9695L137.275 28.7749H135.64Z" fill="white"/>
<path d="M151.27 28.7749V27.505C151.088 27.7771 150.852 28.0129 150.579 28.2306C150.089 28.5935 149.398 28.9563 148.453 28.9563C146.709 28.9563 145.545 27.7771 145.545 26.4165C145.545 24.9651 146.545 23.9673 148.09 23.6952L151.27 23.1509C151.27 22.2257 150.543 21.5182 149.453 21.5182C148.744 21.5182 148.217 21.8266 147.799 22.1169C147.563 22.2801 147.363 22.4797 147.181 22.6974L146 21.5182C146.236 21.2098 146.527 20.9376 146.872 20.7018C147.454 20.2845 148.29 19.8854 149.453 19.8854C151.634 19.8854 153.087 21.3368 153.087 23.2417V28.7749H151.27ZM151.27 24.8744V24.6023L148.726 25.0558C147.799 25.2191 147.363 25.6727 147.363 26.2351C147.363 26.87 147.89 27.4143 148.817 27.4143C150.18 27.4143 151.27 26.3258 151.27 24.8744Z" fill="white"/>
<path d="M21.3265 26.4153L14.2217 37.4715L24.9967 30.3541L27.5895 37.6442L30.1485 30.3541L37.1523 33.5673L33.8188 26.4153L40.9909 23.7895L33.8188 21.1291L40.9909 10.0385L30.1485 17.3977L27.5558 10.0385L24.9967 17.3977L18.0603 14.0117L21.3265 21.1291L14.2217 23.7895L21.3265 26.4153Z" fill="white"/>
</svg>
